<svg width="1164" height="348" viewBox="0 0 1164 348" xmlns="http://www.w3.org/2000/svg" xmlns:xlink="http://www.w3.org/1999/xlink" xml:space="preserve" overflow="hidden"><g transform="translate(-643 -806)"><rect x="709" y="833" width="1042" height="246" fill="#06021C"/><text fill="#B1C301" font-family="Garamond, 'EB Garamond', 'Adobe Garamond Pro', Georgia, 'Times New Roman', serif" font-weight="700" font-size="165" x="742.149" y="1008">L</text><text fill="#B1C301" font-family="Garamond, 'EB Garamond', 'Adobe Garamond Pro', Georgia, 'Times New Roman', serif" font-weight="700" font-size="165" x="1068" y="1008">DESTAR</text><path d="M857 955.5 944.595 946.047 954 858 963.405 946.047 1051 955.5 963.405 964.953 954 1053 944.595 964.953Z" fill="#B1C301" fill-rule="evenodd"/><path d="M970.124 879.081C1001.59 885.514 1025.89 910.575 1031.36 942.222" stroke="#FFFFFF" stroke-width="6.875" stroke-miterlimit="8" fill="none" fill-rule="evenodd"/><path d="M93.6243 1.58081C125.089 8.01389 149.394 33.0749 154.862 64.7217" stroke="#FFFFFF" stroke-width="6.875" stroke-miterlimit="8" fill="none" fill-rule="evenodd" transform="matrix(-1 0 0 1 1030.5 877.5)"/><path d="M936.876 1031.92C905.411 1025.49 881.106 1000.43 875.639 968.778" stroke="#FFFFFF" stroke-width="6.875" stroke-miterlimit="8" fill="none" fill-rule="evenodd"/><path d="M93.6243 1.58081C125.089 8.01389 149.394 33.0749 154.862 64.7217" stroke="#FFFFFF" stroke-width="6.875" stroke-miterlimit="8" fill="none" fill-rule="evenodd" transform="matrix(1 0 0 -1 875.5 1033.5)"/></g></svg>
